<svg width="120" height="52" viewBox="0 0 120 52" fill="none" xmlns="http://www.w3.org/2000/svg">
<path fill-rule="evenodd" clip-rule="evenodd" d="M120 51.5332L118.2 51.7694C116.4 52.0056 112.7 52.478 109.1 50.5883C105.5 48.6986 101.8 44.4468 98.2 43.0296C94.5 41.6123 90.9 43.0296 87.3 43.7382C83.6 44.4468 80 44.4468 76.4 43.7382C72.7 43.0296 69.1 41.6123 65.5 41.8485C61.8 42.0847 58.2 43.9744 54.5 43.9744C50.9 43.9744 47.3 42.0847 43.6 42.7934C40 43.502 36.4 46.8089 32.7 47.99C29.1 49.171 25.5 48.2262 21.8 46.8089C18.2 45.3917 14.5 43.502 10.9 43.502C7.3 43.502 3.60001 45.3917 1.8 46.3365L4.12516e-07 47.2814L4.54598e-06 -6.67604e-06L1.80001 -6.51868e-06C3.60001 -6.36131e-06 7.30001 -6.03785e-06 10.9 -5.72313e-06C14.5 -5.40841e-06 18.2 -5.08494e-06 21.8 -4.77022e-06C25.5 -4.44676e-06 29.1 -4.13203e-06 32.7 -3.81731e-06C36.4 -3.49385e-06 40 -3.17912e-06 43.6 -2.8644e-06C47.3 -2.54094e-06 50.9 -2.22622e-06 54.5 -1.9115e-06C58.2 -1.58803e-06 61.8 -1.27331e-06 65.5 -9.49845e-07C69.1 -6.35123e-07 72.7 -3.204e-07 76.4 3.06401e-09C80 3.17786e-07 83.6 6.32508e-07 87.3 9.55972e-07C90.9 1.27069e-06 94.5 1.58542e-06 98.2 1.90888e-06C101.8 2.2236e-06 105.5 2.54707e-06 109.1 2.86179e-06C112.7 3.17651e-06 116.4 3.49997e-06 118.2 3.65734e-06L120 3.8147e-06L120 51.5332Z" fill="#E96A88"/>
</svg>
